<?xml version="1.0" encoding="iso-8859-1"?>
<!-- Generator: Adobe Illustrator 19.0.0, SVG Export Plug-In . SVG Version: 6.00 Build 0)  -->
<svg version="1.1" id="Layer_1" xmlns="http://www.w3.org/2000/svg" xmlns:xlink="http://www.w3.org/1999/xlink" x="0px" y="0px"
	 viewBox="0 0 477.927 477.927" style="enable-background:new 0 0 477.927 477.927;" xml:space="preserve">
<g>
	<g>
		<g>
			<path d="M241.014,290.194c-19.622-0.046-38.274-8.533-51.2-23.296v63.659c24.938-28.277,68.077-30.984,96.354-6.046
				c2.14,1.887,4.159,3.906,6.046,6.046v-63.659C279.288,281.661,260.635,290.148,241.014,290.194z"/>
			<path d="M455.03,338.237l7.424-42.667c1.19-6.791-0.41-13.775-4.437-19.371c0.25-0.52,0.45-1.063,0.597-1.621
				C482.989,149.688,401.505,28.685,276.615,4.31S30.722,61.419,6.347,186.309c-2.839,14.546-4.268,29.332-4.267,44.152
				c0.003,14.865,1.432,29.696,4.267,44.288c0.154,0.569,0.383,1.114,0.683,1.621c-4.207,5.519-5.993,12.51-4.949,19.371
				l11.691,66.56c2.178,12.384,13.027,21.353,25.6,21.163c1.505,0.126,3.018,0.126,4.523,0l6.4-1.109
				c12.384-2.178,21.353-13.027,21.163-25.6c0.126-1.505,0.126-3.018,0-4.523l-12.117-66.475
				c-2.238-13.96-15.37-23.462-29.33-21.224c-0.122,0.02-0.244,0.04-0.366,0.061l-6.4,1.109h-1.024
				c-1.97-11.646-2.998-23.432-3.072-35.243c0-117.821,95.513-213.333,213.333-213.333s213.333,95.513,213.333,213.333
				c-0.037,12.039-1.065,24.055-3.072,35.925h-1.024l-6.4-1.792c-13.919-2.479-27.213,6.795-29.692,20.715
				c-0.001,0.007-0.003,0.014-0.004,0.021l-11.691,66.475c-2.479,13.919,6.795,27.213,20.715,29.692
				c0.007,0.001,0.014,0.003,0.021,0.004l6.4,1.109c1.505,0.126,3.018,0.126,4.523,0c12.573,0.19,23.422-8.779,25.6-21.163v-1.536
				c7.936,12.885,14.421,34.133-3.755,61.184c-31.659,46.507-88.576,17.579-103.851,8.533V136.594
				c0-9.426-7.641-17.067-17.067-17.067H138.614c-9.426,0-17.067,7.641-17.067,17.067v9.387
				c-23.093,4.689-38.012,27.211-33.323,50.304c3.409,16.791,16.532,29.913,33.323,33.323v26.453h-17.067
				c-9.426,0-17.067,7.641-17.067,17.067v153.6c0,9.426,7.641,17.067,17.067,17.067h17.067v17.067
				c0,9.426,7.641,17.067,17.067,17.067h187.733c9.426,0,17.067-7.641,17.067-17.067v-10.837
				c17.187,9.053,36.22,14.045,55.637,14.592c25.144,0.598,48.783-11.949,62.379-33.109
				C489.675,390.034,471.414,354.279,455.03,338.237z M26.085,282.965c0.048-0.008,0.097-0.016,0.145-0.024l6.4-1.28h1.451
				c4.2-0.061,7.82,2.943,8.533,7.083l11.691,66.475c0.414,2.23-0.078,4.533-1.365,6.4c-1.357,1.807-3.331,3.052-5.547,3.499
				l-6.4,1.109c-2.241,0.389-4.545-0.133-6.4-1.451c-1.84-1.289-3.097-3.251-3.499-5.461l-11.947-66.475
				C18.336,288.197,21.442,283.776,26.085,282.965z M445.814,292.839l-11.861,66.901c-0.402,2.21-1.659,4.172-3.499,5.461
				c-1.855,1.317-4.159,1.84-6.4,1.451l-6.4-1.109c-2.215-0.447-4.189-1.692-5.547-3.499c-1.288-1.867-1.779-4.17-1.365-6.4
				l11.691-66.475c0.714-4.139,4.333-7.144,8.533-7.083h1.451l6.4,1.109C443.378,283.981,446.483,288.259,445.814,292.839z
				 M121.547,426.727h-17.067v-25.6h17.067V426.727z M121.547,384.061h-17.067v-25.6h17.067V384.061z M121.547,341.394h-17.067
				v-25.6h17.067V341.394z M121.547,298.727h-17.067v-25.6h17.067V298.727z M121.547,211.858
				c-13.29-4.824-20.154-19.508-15.33-32.798c2.587-7.128,8.202-12.743,15.33-15.33V211.858z M309.281,418.194
				c0,4.713-3.82,8.533-8.533,8.533H181.281c-4.713,0-8.533-3.82-8.533-8.533V179.261c0-4.713,3.82-8.533,8.533-8.533h119.467
				c4.713,0,8.533,3.82,8.533,8.533V418.194z"/>
			<circle cx="241.014" cy="375.527" r="8.533"/>
			<path d="M189.814,221.927c0,28.277,22.923,51.2,51.2,51.2c28.277,0,51.2-22.923,51.2-51.2v-34.133h-102.4V221.927z
				 M241.014,196.327c14.138,0,25.6,11.462,25.6,25.6s-11.462,25.6-25.6,25.6s-25.6-11.461-25.6-25.6
				S226.875,196.327,241.014,196.327z"/>
			<circle cx="241.014" cy="221.927" r="8.533"/>
			<path d="M241.014,324.327c-28.277,0-51.2,22.923-51.2,51.2v34.133h102.4v-34.133C292.214,347.25,269.291,324.327,241.014,324.327
				z M241.014,401.127c-14.138,0-25.6-11.462-25.6-25.6s11.461-25.6,25.6-25.6s25.6,11.461,25.6,25.6
				S255.152,401.127,241.014,401.127z"/>
		</g>
	</g>
</g>
<g>
</g>
<g>
</g>
<g>
</g>
<g>
</g>
<g>
</g>
<g>
</g>
<g>
</g>
<g>
</g>
<g>
</g>
<g>
</g>
<g>
</g>
<g>
</g>
<g>
</g>
<g>
</g>
<g>
</g>
</svg>
